<?xml version="1.0" encoding="utf-8"?>
<!-- Generator: Adobe Illustrator 18.0.0, SVG Export Plug-In . SVG Version: 6.00 Build 0)  -->
<svg version="1.1" id="Layer_1" xmlns="http://www.w3.org/2000/svg" xmlns:xlink="http://www.w3.org/1999/xlink" x="0px" y="0px"
	 viewBox="0 0 283.5 271.3" enable-background="new 0 0 283.5 271.3" xml:space="preserve">
<g>
	<circle fill="#FFF200" cx="141.7" cy="135.7" r="107.4"/>
	<g>
		<path d="M134.9,193.5c-36.1,0-63.9-13.3-63.9-45.4c0-10.6,2.1-21,7.7-31.6l5.2,2.2c-2.5,7.4-3.8,14.1-3.8,19.8
			c0,26.3,25.9,37.2,58.7,37.2c15.3,0,30.1-2.2,44.6-5.6c6-1.4,11.9-3,17.2-5.3c1-0.4,1.3-1,1.3-1.4c0-6.1-6.3-18.9-13-32.2
			c3.1-5.6,6.4-10.6,9.8-14.7h0.7c6,10.6,13,26.9,13,39.8c0,9.8-3.3,15.6-6.9,21.8C194.1,184.8,160.8,193.5,134.9,193.5z
			 M118.4,106.5c-5.3-5.1-10-9.3-15.3-13.6c3.4-4.7,7-9,10.3-12.4c5.3,4.2,9.8,8.5,14.9,14C124.6,99.7,122,103.1,118.4,106.5z
			 M161.4,104.8c-5.3-5.1-10-9.3-15.3-13.6c3.4-4.7,7-9,10.3-12.4c5.3,4.2,9.8,8.5,14.9,14C167.7,98,165.1,101.4,161.4,104.8z"/>
	</g>
</g>
</svg>
