<?xml version="1.0" encoding="utf-8"?>
<!-- Generator: Adobe Illustrator 20.1.0, SVG Export Plug-In . SVG Version: 6.00 Build 0)  -->
<svg version="1.1" id="Layer_1" xmlns="http://www.w3.org/2000/svg" xmlns:xlink="http://www.w3.org/1999/xlink" x="0px" y="0px"
	 viewBox="0 0 283.5 283.5" style="enable-background:new 0 0 283.5 283.5;" xml:space="preserve">
<style type="text/css">
	.st0{fill:#FFF200;}
</style>
<g>
	<circle class="st0" cx="141.7" cy="141.7" r="140.5"/>
	<g>
		<path d="M164,93.2c9.1-3,9.2-1.9,16.5-5.3l-0.2,0l0.5-0.1c-8.6-5.1-8.1-3.5-16.5-7c-9.1,3-9.2,1.9-16.5,5.3l0.5,0.1l-0.8,0
			C156.2,91.3,155.6,89.7,164,93.2z"/>
		<path d="M217.1,116h-0.9c-4.4,5.6-8.7,12.2-12.8,19.7c8.9,17.8,17.1,34.9,17.1,43c0,0.5-0.3,1.4-1.7,1.9c-7,3.1-14.7,5.2-22.5,7.1
			c-18.9,4.5-38.4,7.5-58.3,7.5c-42.8,0-76.7-14.5-76.7-49.7c0-7.7,1.7-16.6,4.9-26.5l-6.8-3c-7.3,14.1-10.1,28.1-10.1,42.2
			c0,42.9,36.3,60.6,83.6,60.6c33.8,0,77.4-11.5,92.3-20.7c4.8-8.2,9-16,9-29.1C234.2,151.9,225,130.1,217.1,116z"/>
		<path d="M124.1,86.7c-6.7-7.3-12.4-13.1-19.4-18.6c-4.3,4.5-9,10.3-13.5,16.6c6.8,5.8,13,11.3,20,18.1
			C116,98.2,119.4,93.7,124.1,86.7z"/>
	</g>
</g>
</svg>
