<?xml version="1.0" encoding="utf-8"?>
<!-- Generator: Adobe Illustrator 20.1.0, SVG Export Plug-In . SVG Version: 6.00 Build 0)  -->
<svg version="1.1" id="Layer_1" xmlns="http://www.w3.org/2000/svg" xmlns:xlink="http://www.w3.org/1999/xlink" x="0px" y="0px"
	 viewBox="0 0 283.5 283.5" style="enable-background:new 0 0 283.5 283.5;" xml:space="preserve">
<style type="text/css">
	.st0{fill:#FFF200;}
</style>
<g>
	<circle class="st0" cx="141.7" cy="141.7" r="140.5"/>
	<g>
		<path d="M132.9,219c-47.2,0-83.6-17.8-83.6-60.6c0-14.1,2.7-28.1,10.1-42.2l6.8,3c-3.2,9.9-4.9,18.8-4.9,26.5
			c0,35.2,33.9,49.7,76.7,49.7c20,0,39.4-3,58.3-7.5c7.8-1.9,15.5-4,22.5-7.1c1.4-0.5,1.7-1.4,1.7-1.9c0-8.2-8.2-25.3-17.1-43
			c4.1-7.5,8.4-14.1,12.8-19.7h0.9c7.8,14.1,17.1,35.9,17.1,53.2c0,13.1-4.3,20.9-9,29.1C210.3,207.5,166.6,219,132.9,219z
			 M111.2,102.7c-7-6.8-13.1-12.4-20-18.1c4.4-6.3,9.2-12,13.5-16.6c7,5.6,12.8,11.3,19.4,18.6C119.4,93.7,116,98.2,111.2,102.7z
			 M167.5,100.5c-7-6.8-13.1-12.4-20-18.1c4.4-6.3,9.2-12,13.5-16.6c7,5.6,12.8,11.3,19.4,18.6C175.7,91.4,172.2,95.9,167.5,100.5z"
			/>
	</g>
</g>
</svg>
